<svg id="visual" viewBox="0 0 2000 1000" width="2000" height="1000" xmlns="http://www.w3.org/2000/svg" xmlns:xlink="http://www.w3.org/1999/xlink" version="1.1"><rect x="0" y="0" width="2000" height="1000" fill="#16191d"></rect><path d="M0 890L30.3 889.5C60.7 889 121.3 888 182 883C242.7 878 303.3 869 363.8 855C424.3 841 484.7 822 545.2 825.2C605.7 828.3 666.3 853.7 727 850.8C787.7 848 848.3 817 909 800.8C969.7 784.7 1030.3 783.3 1091 805.5C1151.7 827.7 1212.3 873.3 1273 881.3C1333.7 889.3 1394.3 859.7 1454.8 858C1515.3 856.3 1575.7 882.7 1636.2 890.7C1696.7 898.7 1757.3 888.3 1818 877.2C1878.7 866 1939.3 854 1969.7 848L2000 842L2000 1001L1969.7 1001C1939.3 1001 1878.7 1001 1818 1001C1757.3 1001 1696.7 1001 1636.2 1001C1575.7 1001 1515.3 1001 1454.8 1001C1394.3 1001 1333.7 1001 1273 1001C1212.3 1001 1151.7 1001 1091 1001C1030.3 1001 969.7 1001 909 1001C848.3 1001 787.7 1001 727 1001C666.3 1001 605.7 1001 545.2 1001C484.7 1001 424.3 1001 363.8 1001C303.3 1001 242.7 1001 182 1001C121.3 1001 60.7 1001 30.3 1001L0 1001Z" fill="#0066FF" stroke-linecap="round" stroke-linejoin="miter"></path></svg>